<svg width="20" height="20" viewBox="0 0 20 20" fill="none" xmlns="http://www.w3.org/2000/svg">
<path d="M9.99992 4.99998C10.4602 4.99998 10.8333 4.62688 10.8333 4.16665C10.8333 3.70641 10.4602 3.33331 9.99992 3.33331C9.53968 3.33331 9.16659 3.70641 9.16659 4.16665C9.16659 4.62688 9.53968 4.99998 9.99992 4.99998Z" stroke="#ACACAC" stroke-width="2" stroke-linecap="round" stroke-linejoin="round"/>
<path d="M9.99992 10.8333C10.4602 10.8333 10.8333 10.4602 10.8333 9.99998C10.8333 9.53974 10.4602 9.16665 9.99992 9.16665C9.53968 9.16665 9.16659 9.53974 9.16659 9.99998C9.16659 10.4602 9.53968 10.8333 9.99992 10.8333Z" stroke="#ACACAC" stroke-width="2" stroke-linecap="round" stroke-linejoin="round"/>
<path d="M9.99992 16.6666C10.4602 16.6666 10.8333 16.2935 10.8333 15.8333C10.8333 15.3731 10.4602 15 9.99992 15C9.53968 15 9.16659 15.3731 9.16659 15.8333C9.16659 16.2935 9.53968 16.6666 9.99992 16.6666Z" stroke="#ACACAC" stroke-width="2" stroke-linecap="round" stroke-linejoin="round"/>
<path d="M15.8333 4.99998C16.2935 4.99998 16.6666 4.62688 16.6666 4.16665C16.6666 3.70641 16.2935 3.33331 15.8333 3.33331C15.373 3.33331 14.9999 3.70641 14.9999 4.16665C14.9999 4.62688 15.373 4.99998 15.8333 4.99998Z" stroke="#ACACAC" stroke-width="2" stroke-linecap="round" stroke-linejoin="round"/>
<path d="M15.8333 10.8333C16.2935 10.8333 16.6666 10.4602 16.6666 9.99998C16.6666 9.53974 16.2935 9.16665 15.8333 9.16665C15.373 9.16665 14.9999 9.53974 14.9999 9.99998C14.9999 10.4602 15.373 10.8333 15.8333 10.8333Z" stroke="#ACACAC" stroke-width="2" stroke-linecap="round" stroke-linejoin="round"/>
<path d="M15.8333 16.6666C16.2935 16.6666 16.6666 16.2935 16.6666 15.8333C16.6666 15.3731 16.2935 15 15.8333 15C15.373 15 14.9999 15.3731 14.9999 15.8333C14.9999 16.2935 15.373 16.6666 15.8333 16.6666Z" stroke="#ACACAC" stroke-width="2" stroke-linecap="round" stroke-linejoin="round"/>
<path d="M4.16659 4.99998C4.62682 4.99998 4.99992 4.62688 4.99992 4.16665C4.99992 3.70641 4.62682 3.33331 4.16659 3.33331C3.70635 3.33331 3.33325 3.70641 3.33325 4.16665C3.33325 4.62688 3.70635 4.99998 4.16659 4.99998Z" stroke="#ACACAC" stroke-width="2" stroke-linecap="round" stroke-linejoin="round"/>
<path d="M4.16659 10.8333C4.62682 10.8333 4.99992 10.4602 4.99992 9.99998C4.99992 9.53974 4.62682 9.16665 4.16659 9.16665C3.70635 9.16665 3.33325 9.53974 3.33325 9.99998C3.33325 10.4602 3.70635 10.8333 4.16659 10.8333Z" stroke="#ACACAC" stroke-width="2" stroke-linecap="round" stroke-linejoin="round"/>
<path d="M4.16659 16.6666C4.62682 16.6666 4.99992 16.2935 4.99992 15.8333C4.99992 15.3731 4.62682 15 4.16659 15C3.70635 15 3.33325 15.3731 3.33325 15.8333C3.33325 16.2935 3.70635 16.6666 4.16659 16.6666Z" stroke="#ACACAC" stroke-width="2" stroke-linecap="round" stroke-linejoin="round"/>
</svg>
