<svg width="24" height="24" viewBox="0 0 24 24" fill="none" xmlns="http://www.w3.org/2000/svg">
<path d="M2.40002 1.99273C1.84774 1.99273 1.40002 2.44044 1.40002 2.99273C1.40002 3.54501 1.84774 3.99273 2.40002 3.99273V2.99273V1.99273ZM4.69256 2.99273L5.65779 2.73131C5.53973 2.29541 5.14417 1.99273 4.69256 1.99273V2.99273ZM8.41793 16.748L7.45271 17.0094C7.58298 17.4904 8.0475 17.802 8.54197 17.7402L8.41793 16.748ZM19.8806 15.3151L20.0047 16.3074C20.4293 16.2543 20.7732 15.9368 20.8599 15.5177L19.8806 15.3151ZM21.6 7.00467L22.5793 7.20728C22.6402 6.91276 22.5654 6.60646 22.3755 6.37325C22.1856 6.14003 21.9008 6.00467 21.6 6.00467V7.00467ZM5.77913 7.00467L4.8139 7.26609V7.26609L5.77913 7.00467ZM2.40002 2.99273V3.99273H4.69256V2.99273V1.99273H2.40002V2.99273ZM8.41793 16.748L8.54197 17.7402L20.0047 16.3074L19.8806 15.3151L19.7566 14.3228L8.2939 15.7557L8.41793 16.748ZM19.8806 15.3151L20.8599 15.5177L22.5793 7.20728L21.6 7.00467L20.6208 6.80206L18.9014 15.1125L19.8806 15.3151ZM4.69256 2.99273L3.72733 3.25414L4.8139 7.26609L5.77913 7.00467L6.74435 6.74326L5.65779 2.73131L4.69256 2.99273ZM5.77913 7.00467L4.8139 7.26609L7.45271 17.0094L8.41793 16.748L9.38316 16.4865L6.74435 6.74326L5.77913 7.00467ZM21.6 7.00467V6.00467H5.77913V7.00467V8.00467H21.6V7.00467ZM12 20.5H11C11 20.7761 10.7762 21 10.5 21V22V23C11.8807 23 13 21.8807 13 20.5H12ZM10.5 22V21C10.2239 21 10 20.7761 10 20.5H9.00002H8.00002C8.00002 21.8807 9.11931 23 10.5 23V22ZM9.00002 20.5H10C10 20.2239 10.2239 20 10.5 20V19V18C9.11931 18 8.00002 19.1193 8.00002 20.5H9.00002ZM10.5 19V20C10.7762 20 11 20.2239 11 20.5H12H13C13 19.1193 11.8807 18 10.5 18V19ZM20 20.5H19C19 20.7761 18.7762 21 18.5 21V22V23C19.8807 23 21 21.8807 21 20.5H20ZM18.5 22V21C18.2239 21 18 20.7761 18 20.5H17H16C16 21.8807 17.1193 23 18.5 23V22ZM17 20.5H18C18 20.2239 18.2239 20 18.5 20V19V18C17.1193 18 16 19.1193 16 20.5H17ZM18.5 19V20C18.7762 20 19 20.2239 19 20.5H20H21C21 19.1193 19.8807 18 18.5 18V19Z" fill="#333333"/>
</svg>
