<svg width="26" height="21" viewBox="0 0 26 21" fill="none" xmlns="http://www.w3.org/2000/svg">
<path d="M17 1V3.66667M17 9V11.6667M17 17V19.6667M3.66667 1H22.3333C23.0406 1 23.7189 1.28095 24.219 1.78105C24.719 2.28115 25 2.95942 25 3.66667V7.66667C24.2928 7.66667 23.6145 7.94762 23.1144 8.44772C22.6143 8.94781 22.3333 9.62609 22.3333 10.3333C22.3333 11.0406 22.6143 11.7189 23.1144 12.219C23.6145 12.719 24.2928 13 25 13V17C25 17.7072 24.719 18.3855 24.219 18.8856C23.7189 19.3857 23.0406 19.6667 22.3333 19.6667H3.66667C2.95942 19.6667 2.28115 19.3857 1.78105 18.8856C1.28095 18.3855 1 17.7072 1 17V13C1.70724 13 2.38552 12.719 2.88562 12.219C3.38572 11.7189 3.66667 11.0406 3.66667 10.3333C3.66667 9.62609 3.38572 8.94781 2.88562 8.44772C2.38552 7.94762 1.70724 7.66667 1 7.66667V3.66667C1 2.95942 1.28095 2.28115 1.78105 1.78105C2.28115 1.28095 2.95942 1 3.66667 1Z" stroke="white" stroke-width="2" stroke-linecap="round" stroke-linejoin="round"/>
</svg>
