<svg width="20" height="17" viewBox="0 0 20 17" fill="none" xmlns="http://www.w3.org/2000/svg">
<path fill-rule="evenodd" clip-rule="evenodd" d="M1.40537 1.46538C2.30551 0.565522 3.52619 0.0600081 4.79897 0.0600081C6.07176 0.0600081 7.29244 0.565522 8.19257 1.46538L9.59897 2.87058L11.0054 1.46538C11.4482 1.00693 11.9778 0.64126 12.5634 0.389696C13.149 0.138133 13.7789 0.00571955 14.4162 0.000181232C15.0536 -0.00535709 15.6856 0.116091 16.2756 0.357439C16.8655 0.598788 17.4014 0.955202 17.8521 1.40589C18.3028 1.85657 18.6592 2.3925 18.9005 2.9824C19.1419 3.57231 19.2633 4.20437 19.2578 4.84171C19.2522 5.47905 19.1198 6.10891 18.8683 6.69452C18.6167 7.28014 18.251 7.8098 17.7926 8.25258L9.59897 16.4474L1.40537 8.25258C0.505514 7.35245 0 6.13177 0 4.85898C0 3.5862 0.505514 2.36552 1.40537 1.46538Z" fill="#333333"/>
</svg>
