<svg width="20" height="20" viewBox="0 0 20 20" fill="none" xmlns="http://www.w3.org/2000/svg">
<path d="M2 1.49396C1.44772 1.49396 1 1.94167 1 2.49396C1 3.04624 1.44772 3.49396 2 3.49396V2.49396V1.49396ZM3.91045 2.49396L4.87567 2.23254C4.75762 1.79664 4.36205 1.49396 3.91045 1.49396V2.49396ZM7.01492 13.9566L6.0497 14.2181C6.17997 14.6991 6.64449 15.0107 7.13896 14.9489L7.01492 13.9566ZM16.5672 12.7626L16.6912 13.7549C17.1159 13.7018 17.4597 13.3843 17.5464 12.9652L16.5672 12.7626ZM18 5.83724L18.9793 6.03985C19.0402 5.74533 18.9653 5.43903 18.7754 5.20582C18.5855 4.9726 18.3008 4.83724 18 4.83724V5.83724ZM4.81592 5.83724L3.85069 6.09866V6.09866L4.81592 5.83724ZM2 2.49396V3.49396H3.91045V2.49396V1.49396H2V2.49396ZM7.01492 13.9566L7.13896 14.9489L16.6912 13.7549L16.5672 12.7626L16.4431 11.7703L6.89089 12.9644L7.01492 13.9566ZM16.5672 12.7626L17.5464 12.9652L18.9793 6.03985L18 5.83724L17.0207 5.63464L15.5879 12.56L16.5672 12.7626ZM3.91045 2.49396L2.94522 2.75537L3.85069 6.09866L4.81592 5.83724L5.78115 5.57583L4.87567 2.23254L3.91045 2.49396ZM4.81592 5.83724L3.85069 6.09866L6.0497 14.2181L7.01492 13.9566L7.98015 13.6952L5.78115 5.57583L4.81592 5.83724ZM18 5.83724V4.83724H4.81592V5.83724V6.83724H18V5.83724ZM10 17.0834H9C9 17.2214 8.88807 17.3334 8.75 17.3334V18.3334V19.3334C9.99264 19.3334 11 18.326 11 17.0834H10ZM8.75 18.3334V17.3334C8.61193 17.3334 8.5 17.2214 8.5 17.0834H7.5H6.5C6.5 18.326 7.50736 19.3334 8.75 19.3334V18.3334ZM7.5 17.0834H8.5C8.5 16.9453 8.61193 16.8334 8.75 16.8334V15.8334V14.8334C7.50736 14.8334 6.5 15.8407 6.5 17.0834H7.5ZM8.75 15.8334V16.8334C8.88807 16.8334 9 16.9453 9 17.0834H10H11C11 15.8407 9.99264 14.8334 8.75 14.8334V15.8334ZM16.6667 17.0834H15.6667C15.6667 17.2214 15.5547 17.3334 15.4167 17.3334V18.3334V19.3334C16.6593 19.3334 17.6667 18.326 17.6667 17.0834H16.6667ZM15.4167 18.3334V17.3334C15.2786 17.3334 15.1667 17.2214 15.1667 17.0834H14.1667H13.1667C13.1667 18.326 14.174 19.3334 15.4167 19.3334V18.3334ZM14.1667 17.0834H15.1667C15.1667 16.9453 15.2786 16.8334 15.4167 16.8334V15.8334V14.8334C14.174 14.8334 13.1667 15.8407 13.1667 17.0834H14.1667ZM15.4167 15.8334V16.8334C15.5547 16.8334 15.6667 16.9453 15.6667 17.0834H16.6667H17.6667C17.6667 15.8407 16.6593 14.8334 15.4167 14.8334V15.8334Z" fill="#ACACAC"/>
</svg>
