<svg width="26" height="26" viewBox="0 0 26 26" fill="none" xmlns="http://www.w3.org/2000/svg">
<path fill-rule="evenodd" clip-rule="evenodd" d="M4.12405 6.72361C5.0992 5.74876 6.4216 5.20112 7.80045 5.20112C9.1793 5.20112 10.5017 5.74876 11.4768 6.72361L13.0004 8.24591L14.524 6.72361C15.0037 6.22695 15.5775 5.83081 16.2119 5.55828C16.8464 5.28575 17.5287 5.1423 18.2192 5.1363C18.9096 5.1303 19.5943 5.26187 20.2334 5.52333C20.8725 5.7848 21.4531 6.17091 21.9413 6.65915C22.4295 7.14739 22.8157 7.72798 23.0771 8.36705C23.3386 9.00611 23.4701 9.69084 23.4641 10.3813C23.4581 11.0717 23.3147 11.7541 23.0422 12.3885C22.7696 13.0229 22.3735 13.5967 21.8768 14.0764L13.0004 22.9541L4.12405 14.0764C3.1492 13.1013 2.60156 11.7789 2.60156 10.4C2.60156 9.02115 3.1492 7.69875 4.12405 6.72361V6.72361Z" stroke="#AEBED1" stroke-width="2" stroke-linejoin="round"/>
</svg>
