<svg width="40" height="40" viewBox="0 0 40 40" fill="none" xmlns="http://www.w3.org/2000/svg">
<path d="M13.9999 33.5C13.9999 31.3787 13.9999 30.318 14.6589 29.659C15.3179 29 16.3786 29 18.4999 29L21.4999 29C23.6212 29 24.6819 29 25.3409 29.659C25.9999 30.318 25.9999 31.3787 25.9999 33.5V35H13.9999V33.5Z" stroke="#F33846" stroke-width="2" stroke-linecap="round" stroke-linejoin="round"/>
<path d="M20 21.4999L20 28.9999" stroke="#F33846" stroke-width="2" stroke-linecap="round" stroke-linejoin="round"/>
<path d="M11 34.9999L29 34.9999" stroke="#F33846" stroke-width="2" stroke-linecap="round" stroke-linejoin="round"/>
<path d="M21.5549 6.29982L23.1387 9.49365C23.3547 9.93824 23.9306 10.3647 24.4166 10.4464L27.2872 10.9272C29.123 11.2357 29.555 12.5786 28.2321 13.9033L26.0004 16.1535C25.6224 16.5346 25.4154 17.2695 25.5324 17.7958L26.1714 20.5813C26.6753 22.7861 25.5144 23.639 23.5796 22.4867L20.8889 20.8807C20.403 20.5904 19.6021 20.5904 19.1071 20.8807L16.4164 22.4867C14.4907 23.639 13.3208 22.7771 13.8247 20.5813L14.4637 17.7958C14.5806 17.2695 14.3737 16.5346 13.9957 16.1535L11.764 13.9033C10.4501 12.5786 10.8731 11.2357 12.7089 10.9272L15.5795 10.4464C16.0565 10.3647 16.6324 9.93824 16.8484 9.49365L18.4322 6.29982C19.2961 4.56681 20.7 4.56681 21.5549 6.29982Z" stroke="#F33846" stroke-width="2" stroke-linecap="round" stroke-linejoin="round"/>
</svg>
