<svg width="14" height="17" viewBox="0 0 14 17" fill="none" xmlns="http://www.w3.org/2000/svg">
<path d="M0.75 15.75V14.0833C0.75 13.1993 1.10119 12.3514 1.72631 11.7263C2.35143 11.1012 3.19928 10.75 4.08333 10.75H9.41667C10.3007 10.75 11.1486 11.1012 11.7737 11.7263C12.3988 12.3514 12.75 13.1993 12.75 14.0833V15.75M3.41667 4.08333C3.41667 4.96739 3.76786 5.81523 4.39298 6.44036C5.0181 7.06548 5.86595 7.41667 6.75 7.41667C7.63405 7.41667 8.4819 7.06548 9.10702 6.44036C9.73214 5.81523 10.0833 4.96739 10.0833 4.08333C10.0833 3.19928 9.73214 2.35143 9.10702 1.72631C8.4819 1.10119 7.63405 0.75 6.75 0.75C5.86595 0.75 5.0181 1.10119 4.39298 1.72631C3.76786 2.35143 3.41667 3.19928 3.41667 4.08333Z" stroke="#F33846" stroke-width="1.5" stroke-linecap="round" stroke-linejoin="round"/>
</svg>
