<svg width="17" height="17" viewBox="0 0 17 17" fill="none" xmlns="http://www.w3.org/2000/svg">
<path d="M5.74064 10.7406L10.7406 5.74064M6.57397 6.15731C6.57397 6.38743 6.38743 6.57397 6.15731 6.57397C5.92719 6.57397 5.74064 6.38743 5.74064 6.15731C5.74064 5.92719 5.92719 5.74064 6.15731 5.74064C6.38743 5.74064 6.57397 5.92719 6.57397 6.15731ZM10.7406 10.324C10.7406 10.5541 10.5541 10.7406 10.324 10.7406C10.0939 10.7406 9.90731 10.5541 9.90731 10.324C9.90731 10.0939 10.0939 9.90731 10.324 9.90731C10.5541 9.90731 10.7406 10.0939 10.7406 10.324ZM2.40729 4.24062C2.40729 3.75439 2.60044 3.28807 2.94426 2.94426C3.28807 2.60044 3.75439 2.40729 4.24062 2.40729H5.07395C5.55803 2.40701 6.02236 2.21529 6.36562 1.87395L6.94895 1.29062C7.11932 1.11929 7.32189 0.98332 7.54499 0.890541C7.76809 0.797762 8.00733 0.75 8.24895 0.75C8.49058 0.75 8.72982 0.797762 8.95292 0.890541C9.17602 0.98332 9.37858 1.11929 9.54895 1.29062L10.1323 1.87395C10.4755 2.21529 10.9399 2.40701 11.424 2.40729H12.2573C12.7435 2.40729 13.2098 2.60044 13.5536 2.94426C13.8975 3.28807 14.0906 3.75439 14.0906 4.24062V5.07395C14.0909 5.55803 14.2826 6.02236 14.624 6.36562L15.2073 6.94895C15.3786 7.11932 15.5146 7.32189 15.6074 7.54499C15.7001 7.76809 15.7479 8.00733 15.7479 8.24895C15.7479 8.49058 15.7001 8.72982 15.6074 8.95292C15.5146 9.17602 15.3786 9.37858 15.2073 9.54895L14.624 10.1323C14.2826 10.4755 14.0909 10.9399 14.0906 11.424V12.2573C14.0906 12.7435 13.8975 13.2098 13.5536 13.5536C13.2098 13.8975 12.7435 14.0906 12.2573 14.0906H11.424C10.9399 14.0909 10.4755 14.2826 10.1323 14.624L9.54895 15.2073C9.37858 15.3786 9.17602 15.5146 8.95292 15.6074C8.72982 15.7001 8.49058 15.7479 8.24895 15.7479C8.00733 15.7479 7.76809 15.7001 7.54499 15.6074C7.32189 15.5146 7.11932 15.3786 6.94895 15.2073L6.36562 14.624C6.02236 14.2826 5.55803 14.0909 5.07395 14.0906H4.24062C3.75439 14.0906 3.28807 13.8975 2.94426 13.5536C2.60044 13.2098 2.40729 12.7435 2.40729 12.2573V11.424C2.40701 10.9399 2.21529 10.4755 1.87395 10.1323L1.29062 9.54895C1.11929 9.37858 0.98332 9.17602 0.890541 8.95292C0.797762 8.72982 0.75 8.49058 0.75 8.24895C0.75 8.00733 0.797762 7.76809 0.890541 7.54499C0.98332 7.32189 1.11929 7.11932 1.29062 6.94895L1.87395 6.36562C2.21529 6.02236 2.40701 5.55803 2.40729 5.07395V4.24062Z" stroke="#F33846" stroke-width="1.5" stroke-linecap="round" stroke-linejoin="round"/>
</svg>
