<svg width="40" height="40" viewBox="0 0 40 40" fill="none" xmlns="http://www.w3.org/2000/svg">
<path d="M20 13.3334V6.66669" stroke="#F33846" stroke-width="2" stroke-linecap="round"/>
<path d="M19 26.6667H16" stroke="#F33846" stroke-width="2" stroke-linecap="round"/>
<path d="M8.16669 33.3334L31.8334 33.3334C32.6618 33.3334 33.3334 32.6618 33.3334 31.8334L33.3334 13.5694C33.3334 13.4142 33.2972 13.2611 33.2278 13.1222L30.5528 7.77226C30.214 7.09469 29.5215 6.66669 28.764 6.66669L11.2361 6.66669C10.4785 6.66669 9.78602 7.09469 9.44723 7.77226L6.77226 13.1222C6.70283 13.2611 6.66669 13.4142 6.66669 13.5694L6.66669 31.8334C6.66669 32.6618 7.33826 33.3334 8.16669 33.3334Z" stroke="#F33846" stroke-width="2" stroke-linecap="round"/>
<path d="M8.33331 13.3333L31.6666 13.3333" stroke="#F33846" stroke-width="2" stroke-linecap="round" stroke-linejoin="round"/>
</svg>
