<svg width="68" height="68" viewBox="0 0 68 68" fill="none" xmlns="http://www.w3.org/2000/svg">
<circle cx="34" cy="34" r="34" fill="#F33846"/>
<path d="M38 24.6666V27.3333M38 32.6666V35.3333M38 40.6666V43.3333M24.6667 24.6666H43.3333C44.0406 24.6666 44.7189 24.9476 45.219 25.4477C45.719 25.9478 46 26.626 46 27.3333V31.3333C45.2928 31.3333 44.6145 31.6142 44.1144 32.1143C43.6143 32.6144 43.3333 33.2927 43.3333 34C43.3333 34.7072 43.6143 35.3855 44.1144 35.8856C44.6145 36.3857 45.2928 36.6666 46 36.6666V40.6666C46 41.3739 45.719 42.0521 45.219 42.5522C44.7189 43.0523 44.0406 43.3333 43.3333 43.3333H24.6667C23.9594 43.3333 23.2811 43.0523 22.781 42.5522C22.281 42.0521 22 41.3739 22 40.6666V36.6666C22.7072 36.6666 23.3855 36.3857 23.8856 35.8856C24.3857 35.3855 24.6667 34.7072 24.6667 34C24.6667 33.2927 24.3857 32.6144 23.8856 32.1143C23.3855 31.6142 22.7072 31.3333 22 31.3333V27.3333C22 26.626 22.281 25.9478 22.781 25.4477C23.2811 24.9476 23.9594 24.6666 24.6667 24.6666Z" stroke="white" stroke-width="2" stroke-linecap="round" stroke-linejoin="round"/>
</svg>
