<svg width="16" height="18" viewBox="0 0 16 18" fill="none" xmlns="http://www.w3.org/2000/svg">
<path d="M5.16667 7.66626C5.16667 8.3293 5.43006 8.96519 5.8989 9.43403C6.36774 9.90287 7.00363 10.1663 7.66667 10.1663C8.32971 10.1663 8.96559 9.90287 9.43443 9.43403C9.90327 8.96519 10.1667 8.3293 10.1667 7.66626C10.1667 7.00322 9.90327 6.36733 9.43443 5.89849C8.96559 5.42965 8.32971 5.16626 7.66667 5.16626C7.00363 5.16626 6.36774 5.42965 5.8989 5.89849C5.43006 6.36733 5.16667 7.00322 5.16667 7.66626Z" stroke="#F33846" stroke-width="2" stroke-linecap="round" stroke-linejoin="round"/>
<path d="M12.3808 12.3806L8.845 15.9164C8.53249 16.2286 8.10882 16.404 7.66709 16.404C7.22535 16.404 6.80168 16.2286 6.48917 15.9164L2.9525 12.3806C2.02019 11.4482 1.38528 10.2603 1.12808 8.96714C0.870869 7.67395 1.00291 6.33352 1.50751 5.11536C2.0121 3.89721 2.86658 2.85604 3.9629 2.12351C5.05922 1.39098 6.34814 1 7.66667 1C8.9852 1 10.2741 1.39098 11.3704 2.12351C12.4668 2.85604 13.3212 3.89721 13.8258 5.11536C14.3304 6.33352 14.4625 7.67395 14.2053 8.96714C13.9481 10.2603 13.3132 11.4482 12.3808 12.3806Z" stroke="#F33846" stroke-width="2" stroke-linecap="round" stroke-linejoin="round"/>
</svg>
