<svg width="41" height="41" viewBox="0 0 41 41" fill="none" xmlns="http://www.w3.org/2000/svg">
<rect width="41" height="41" rx="20.5" fill="#F3F8FF"/>
<path fill-rule="evenodd" clip-rule="evenodd" d="M11.6236 14.2235C12.5988 13.2486 13.9212 12.701 15.3 12.701C16.6789 12.701 18.0013 13.2486 18.9764 14.2235L20.5 15.7458L22.0236 14.2235C22.5033 13.7268 23.0771 13.3307 23.7115 13.0582C24.3459 12.7856 25.0283 12.6422 25.7187 12.6362C26.4092 12.6302 27.0939 12.7618 27.733 13.0232C28.372 13.2847 28.9526 13.6708 29.4409 14.159C29.9291 14.6473 30.3152 15.2279 30.5767 15.8669C30.8382 16.506 30.9697 17.1907 30.9637 17.8812C30.9577 18.5716 30.8143 19.254 30.5417 19.8884C30.2692 20.5228 29.8731 21.0966 29.3764 21.5763L20.5 30.454L11.6236 21.5763C10.6488 20.6011 10.1011 19.2787 10.1011 17.8999C10.1011 16.521 10.6488 15.1986 11.6236 14.2235V14.2235Z" stroke="#AEBED1" stroke-width="2" stroke-linejoin="round"/>
</svg>
