<svg width="40" height="40" viewBox="0 0 40 40" fill="none" xmlns="http://www.w3.org/2000/svg">
<ellipse cx="28.3333" cy="30" rx="3.33333" ry="3.33333" stroke="#F33846" stroke-width="2"/>
<ellipse cx="11.6667" cy="30" rx="3.33333" ry="3.33333" stroke="#F33846" stroke-width="2"/>
<path d="M8.33333 29.9541C6.50545 29.863 5.36517 29.5911 4.55372 28.7796C3.74227 27.9682 3.47036 26.8279 3.37925 25M15 30H25M31.6667 29.9541C33.4945 29.863 34.6348 29.5911 35.4463 28.7796C36.6667 27.5592 36.6667 25.5951 36.6667 21.6667V18.3334H28.8333C27.5925 18.3334 26.972 18.3334 26.4699 18.1702C25.4551 17.8405 24.6595 17.0449 24.3298 16.0301C24.1667 15.528 24.1667 14.9075 24.1667 13.6667C24.1667 11.8054 24.1667 10.8748 23.9219 10.1216C23.4274 8.59941 22.2339 7.40599 20.7117 6.9114C19.9586 6.66669 19.0279 6.66669 17.1667 6.66669H3.33333" stroke="#F33846" stroke-width="2" stroke-linecap="round" stroke-linejoin="round"/>
<path d="M3.33333 13.3333L13.3333 13.3333" stroke="#F33846" stroke-width="2" stroke-linecap="round" stroke-linejoin="round"/>
<path d="M3.33333 18.3333H9.99999" stroke="#F33846" stroke-width="2" stroke-linecap="round" stroke-linejoin="round"/>
<path d="M24.1667 10H27.202C29.6276 10 30.8404 10 31.8274 10.5895C32.8144 11.179 33.3893 12.2469 34.5393 14.3825L36.6667 18.3333" stroke="#F33846" stroke-width="2" stroke-linecap="round" stroke-linejoin="round"/>
</svg>
