<svg width="17" height="14" viewBox="0 0 17 14" fill="none" xmlns="http://www.w3.org/2000/svg">
<path d="M2.41667 10.75C2.41667 11.192 2.59226 11.616 2.90482 11.9285C3.21738 12.2411 3.64131 12.4167 4.08333 12.4167C4.52536 12.4167 4.94928 12.2411 5.26184 11.9285C5.5744 11.616 5.75 11.192 5.75 10.75M2.41667 10.75C2.41667 10.308 2.59226 9.88405 2.90482 9.57149C3.21738 9.25893 3.64131 9.08333 4.08333 9.08333C4.52536 9.08333 4.94928 9.25893 5.26184 9.57149C5.5744 9.88405 5.75 10.308 5.75 10.75M2.41667 10.75H0.75V1.58333C0.75 1.36232 0.837797 1.15036 0.994078 0.994078C1.15036 0.837798 1.36232 0.75 1.58333 0.75H9.08333V10.75M5.75 10.75H10.75M10.75 10.75C10.75 11.192 10.9256 11.616 11.2382 11.9285C11.5507 12.2411 11.9746 12.4167 12.4167 12.4167C12.8587 12.4167 13.2826 12.2411 13.5952 11.9285C13.9077 11.616 14.0833 11.192 14.0833 10.75M10.75 10.75C10.75 10.308 10.9256 9.88405 11.2382 9.57149C11.5507 9.25893 11.9746 9.08333 12.4167 9.08333C12.8587 9.08333 13.2826 9.25893 13.5952 9.57149C13.9077 9.88405 14.0833 10.308 14.0833 10.75M14.0833 10.75H15.75V5.75M15.75 5.75H9.08333M15.75 5.75L13.25 1.58333H9.08333" stroke="#F33846" stroke-width="1.5" stroke-linecap="round" stroke-linejoin="round"/>
</svg>
