<svg width="40" height="40" viewBox="0 0 40 40" fill="none" xmlns="http://www.w3.org/2000/svg">
<path d="M13.25 20L22.25 20M13.25 14H17.75" stroke="#F33846" stroke-width="2" stroke-linecap="round" stroke-linejoin="round"/>
<path d="M14.7501 32C16.3256 33.3045 18.2218 34.1356 20.3953 34.2782C22.1078 34.3905 23.8958 34.3903 25.6048 34.2782C26.1933 34.2396 26.8347 34.101 27.3872 33.8765C28.0018 33.6267 28.3093 33.5017 28.4655 33.5207C28.6217 33.5396 28.8483 33.7045 29.3016 34.0344C30.1008 34.616 31.1076 35.0337 32.6007 34.9978C33.3557 34.9797 33.7332 34.9706 33.9022 34.6863C34.0712 34.4019 33.8607 34.0083 33.4398 33.2211C32.8559 32.1292 32.486 30.8793 33.0465 29.8778C34.0119 28.4473 34.8319 26.7531 34.9517 24.9234C35.0161 23.9403 35.0161 22.9221 34.9517 21.939C34.8719 20.7199 34.5759 19.5609 34.1018 18.5" stroke="#F33846" stroke-width="2" stroke-linecap="round" stroke-linejoin="round"/>
<path d="M20.5175 28.2301C25.8509 27.8788 30.0991 23.6103 30.4487 18.2516C30.5171 17.2029 30.5171 16.1169 30.4487 15.0683C30.0991 9.70951 25.8509 5.44101 20.5175 5.08978C18.698 4.96995 16.7983 4.9702 14.9825 5.08978C9.64919 5.44101 5.40093 9.70951 5.05137 15.0683C4.98296 16.1169 4.98296 17.2029 5.05137 18.2516C5.17868 20.2033 6.04993 22.0104 7.07564 23.5363C7.67119 24.6045 7.27815 25.9378 6.65783 27.1024C6.21056 27.9422 5.98692 28.362 6.16648 28.6653C6.34604 28.9686 6.74714 28.9783 7.54932 28.9976C9.13572 29.0359 10.2055 28.5903 11.0546 27.97C11.5362 27.6181 11.777 27.4422 11.943 27.422C12.1089 27.4018 12.4355 27.5351 13.0886 27.8015C13.6756 28.0411 14.3572 28.1889 14.9825 28.2301C16.7983 28.3497 18.698 28.3499 20.5175 28.2301Z" stroke="#F33846" stroke-width="2" stroke-linejoin="round"/>
</svg>
