<svg width="20" height="20" viewBox="0 0 20 20" fill="none" xmlns="http://www.w3.org/2000/svg">
<path fill-rule="evenodd" clip-rule="evenodd" d="M3.17212 5.17202C3.92223 4.42214 4.93946 4.00087 6.00012 4.00087C7.06078 4.00087 8.07801 4.42214 8.82812 5.17202L10.0001 6.34302L11.1721 5.17202C11.5411 4.78998 11.9825 4.48525 12.4705 4.27561C12.9585 4.06598 13.4834 3.95563 14.0145 3.95102C14.5456 3.9464 15.0723 4.04761 15.5639 4.24873C16.0555 4.44986 16.5021 4.74687 16.8777 5.12244C17.2533 5.49801 17.5503 5.94462 17.7514 6.4362C17.9525 6.92779 18.0537 7.45451 18.0491 7.98562C18.0445 8.51674 17.9342 9.04162 17.7245 9.52964C17.5149 10.0177 17.2102 10.459 16.8281 10.828L10.0001 17.657L3.17212 10.828C2.42224 10.0779 2.00098 9.06068 2.00098 8.00002C2.00098 6.93936 2.42224 5.92213 3.17212 5.17202V5.17202Z" stroke="#ACACAC" stroke-width="2" stroke-linejoin="round"/>
</svg>
