<svg width="41" height="41" viewBox="0 0 41 41" fill="none" xmlns="http://www.w3.org/2000/svg">
<rect width="41" height="41" rx="20.5" fill="#F3F8FF"/>
<path fill-rule="evenodd" clip-rule="evenodd" d="M11.6241 14.2236C12.5992 13.2488 13.9216 12.7011 15.3005 12.7011C16.6793 12.7011 18.0017 13.2488 18.9768 14.2236L20.5004 15.7459L22.024 14.2236C22.5037 13.727 23.0775 13.3308 23.7119 13.0583C24.3464 12.7858 25.0287 12.6423 25.7192 12.6363C26.4096 12.6303 27.0943 12.7619 27.7334 13.0233C28.3725 13.2848 28.9531 13.6709 29.4413 14.1592C29.9295 14.6474 30.3157 15.228 30.5771 15.867C30.8386 16.5061 30.9701 17.1908 30.9641 17.8813C30.9581 18.5717 30.8147 19.2541 30.5422 19.8885C30.2696 20.5229 29.8735 21.0967 29.3768 21.5764L20.5004 30.4541L11.6241 21.5764C10.6492 20.6013 10.1016 19.2789 10.1016 17.9C10.1016 16.5212 10.6492 15.1988 11.6241 14.2236Z" fill="#333333"/>
</svg>
